<svg xmlns="http://www.w3.org/2000/svg" xmlns:xlink="http://www.w3.org/1999/xlink" width="250" zoomAndPan="magnify" viewBox="0 0 187.5 74.999997" height="100" preserveAspectRatio="xMidYMid meet" version="1.0"><defs><g/><clipPath id="b8a7ca0664"><path d="M 154 27 L 186 27 L 186 74.898438 L 154 74.898438 Z M 154 27 " clip-rule="nonzero"/></clipPath><clipPath id="aa51e96987"><path d="M 117 19 L 128 19 L 128 53 L 117 53 Z M 117 19 " clip-rule="nonzero"/></clipPath><clipPath id="0cc78d2bc1"><path d="M 88.195312 32.171875 L 117.46875 -0.00390625 L 151.308594 30.785156 L 122.035156 62.960938 Z M 88.195312 32.171875 " clip-rule="nonzero"/></clipPath><clipPath id="c291039551"><path d="M 88.195312 32.171875 L 117.46875 -0.00390625 L 151.308594 30.785156 L 122.035156 62.960938 Z M 88.195312 32.171875 " clip-rule="nonzero"/></clipPath><clipPath id="e2178c367c"><path d="M 88.195312 32.171875 L 117.46875 -0.00390625 L 151.308594 30.785156 L 122.035156 62.960938 Z M 88.195312 32.171875 " clip-rule="nonzero"/></clipPath><clipPath id="f9da17d0e9"><path d="M 115 4 L 125 4 L 125 23 L 115 23 Z M 115 4 " clip-rule="nonzero"/></clipPath><clipPath id="ecc0d7d60d"><path d="M 88.195312 32.171875 L 117.46875 -0.00390625 L 151.308594 30.785156 L 122.035156 62.960938 Z M 88.195312 32.171875 " clip-rule="nonzero"/></clipPath><clipPath id="06b14e9931"><path d="M 88.195312 32.171875 L 117.46875 -0.00390625 L 151.308594 30.785156 L 122.035156 62.960938 Z M 88.195312 32.171875 " clip-rule="nonzero"/></clipPath><clipPath id="dca8de43a6"><path d="M 88.195312 32.171875 L 117.46875 -0.00390625 L 151.308594 30.785156 L 122.035156 62.960938 Z M 88.195312 32.171875 " clip-rule="nonzero"/></clipPath><clipPath id="d3ddd4f6fc"><path d="M 126 19 L 137 19 L 137 53 L 126 53 Z M 126 19 " clip-rule="nonzero"/></clipPath><clipPath id="57dc9dd934"><path d="M 88.195312 32.171875 L 117.46875 -0.00390625 L 151.308594 30.785156 L 122.035156 62.960938 Z M 88.195312 32.171875 " clip-rule="nonzero"/></clipPath><clipPath id="28864d3409"><path d="M 88.195312 32.171875 L 117.46875 -0.00390625 L 151.308594 30.785156 L 122.035156 62.960938 Z M 88.195312 32.171875 " clip-rule="nonzero"/></clipPath><clipPath id="adee7fca11"><path d="M 88.195312 32.171875 L 117.46875 -0.00390625 L 151.308594 30.785156 L 122.035156 62.960938 Z M 88.195312 32.171875 " clip-rule="nonzero"/></clipPath><clipPath id="ade2c76061"><path d="M 115 2 L 133 2 L 133 23 L 115 23 Z M 115 2 " clip-rule="nonzero"/></clipPath><clipPath id="2d6cdb3bb6"><path d="M 88.195312 32.171875 L 117.46875 -0.00390625 L 151.308594 30.785156 L 122.035156 62.960938 Z M 88.195312 32.171875 " clip-rule="nonzero"/></clipPath><clipPath id="7d6dd906c0"><path d="M 88.195312 32.171875 L 117.46875 -0.00390625 L 151.308594 30.785156 L 122.035156 62.960938 Z M 88.195312 32.171875 " clip-rule="nonzero"/></clipPath><clipPath id="7561469d73"><path d="M 88.195312 32.171875 L 117.46875 -0.00390625 L 151.308594 30.785156 L 122.035156 62.960938 Z M 88.195312 32.171875 " clip-rule="nonzero"/></clipPath><clipPath id="81dc5cb299"><path d="M 120 52 L 127 52 L 127 63 L 120 63 Z M 120 52 " clip-rule="nonzero"/></clipPath><clipPath id="105a141313"><path d="M 88.195312 32.171875 L 117.46875 -0.00390625 L 151.308594 30.785156 L 122.035156 62.960938 Z M 88.195312 32.171875 " clip-rule="nonzero"/></clipPath><clipPath id="c8d519e288"><path d="M 88.195312 32.171875 L 117.46875 -0.00390625 L 151.308594 30.785156 L 122.035156 62.960938 Z M 88.195312 32.171875 " clip-rule="nonzero"/></clipPath><clipPath id="4405f0e18e"><path d="M 88.195312 32.171875 L 117.46875 -0.00390625 L 151.308594 30.785156 L 122.035156 62.960938 Z M 88.195312 32.171875 " clip-rule="nonzero"/></clipPath></defs><g fill="#000000" fill-opacity="1"><g transform="translate(0.041554, 61.294091)"><g><path d="M 5.484375 0 L 5.484375 -45.265625 L 21.296875 -45.265625 C 24.453125 -45.265625 27.050781 -44.722656 29.09375 -43.640625 C 31.144531 -42.554688 32.671875 -41.101562 33.671875 -39.28125 C 34.679688 -37.457031 35.1875 -35.441406 35.1875 -33.234375 C 35.1875 -31.296875 34.84375 -29.691406 34.15625 -28.421875 C 33.46875 -27.148438 32.566406 -26.144531 31.453125 -25.40625 C 30.347656 -24.675781 29.144531 -24.132812 27.84375 -23.78125 L 27.84375 -23.34375 C 29.226562 -23.25 30.617188 -22.757812 32.015625 -21.875 C 33.421875 -20.988281 34.59375 -19.722656 35.53125 -18.078125 C 36.476562 -16.429688 36.953125 -14.410156 36.953125 -12.015625 C 36.953125 -9.753906 36.4375 -7.71875 35.40625 -5.90625 C 34.375 -4.09375 32.742188 -2.65625 30.515625 -1.59375 C 28.296875 -0.53125 25.398438 0 21.828125 0 Z M 10.96875 -4.859375 L 21.828125 -4.859375 C 25.410156 -4.859375 27.957031 -5.550781 29.46875 -6.9375 C 30.976562 -8.332031 31.734375 -10.023438 31.734375 -12.015625 C 31.734375 -13.554688 31.34375 -14.976562 30.5625 -16.28125 C 29.78125 -17.582031 28.664062 -18.625 27.21875 -19.40625 C 25.78125 -20.195312 24.070312 -20.59375 22.09375 -20.59375 L 10.96875 -20.59375 Z M 10.96875 -25.375 L 21.125 -25.375 C 23.601562 -25.375 25.695312 -26.085938 27.40625 -27.515625 C 29.113281 -28.941406 29.96875 -30.847656 29.96875 -33.234375 C 29.96875 -35.222656 29.273438 -36.914062 27.890625 -38.3125 C 26.503906 -39.707031 24.304688 -40.40625 21.296875 -40.40625 L 10.96875 -40.40625 Z M 10.96875 -25.375 "/></g></g></g><g fill="#000000" fill-opacity="1"><g transform="translate(34.798413, 61.294091)"><g><path d="M 4.78125 0 L 4.78125 -33.953125 L 9.8125 -33.953125 L 9.8125 -28.8125 L 10.171875 -28.8125 C 10.773438 -30.5 11.882812 -31.863281 13.5 -32.90625 C 15.125 -33.945312 16.957031 -34.46875 19 -34.46875 C 19.945312 -34.46875 20.773438 -34.359375 21.484375 -34.140625 C 22.191406 -33.921875 22.8125 -33.617188 23.34375 -33.234375 L 21.5625 -28.8125 C 21.195312 -29.007812 20.765625 -29.160156 20.265625 -29.265625 C 19.773438 -29.378906 19.207031 -29.4375 18.5625 -29.4375 C 16.082031 -29.4375 14.03125 -28.679688 12.40625 -27.171875 C 10.789062 -25.660156 9.984375 -23.765625 9.984375 -21.484375 L 9.984375 0 Z M 4.78125 0 "/></g></g></g><g fill="#000000" fill-opacity="1"><g transform="translate(52.937886, 61.294091)"><g><path d="M 19 0.703125 C 15.726562 0.703125 12.910156 -0.0195312 10.546875 -1.46875 C 8.179688 -2.914062 6.363281 -4.945312 5.09375 -7.5625 C 3.820312 -10.175781 3.1875 -13.222656 3.1875 -16.703125 C 3.1875 -20.179688 3.820312 -23.25 5.09375 -25.90625 C 6.363281 -28.570312 8.144531 -30.648438 10.4375 -32.140625 C 12.726562 -33.640625 15.40625 -34.390625 18.46875 -34.390625 C 20.238281 -34.390625 21.984375 -34.09375 23.703125 -33.5 C 25.429688 -32.914062 27.003906 -31.960938 28.421875 -30.640625 C 29.835938 -29.316406 30.960938 -27.570312 31.796875 -25.40625 C 32.640625 -23.25 33.0625 -20.585938 33.0625 -17.421875 L 33.0625 -15.203125 L 8.421875 -15.203125 C 8.535156 -11.578125 9.5625 -8.800781 11.5 -6.875 C 13.4375 -4.945312 15.9375 -3.984375 19 -3.984375 C 21.050781 -3.984375 22.8125 -4.421875 24.28125 -5.296875 C 25.757812 -6.179688 26.832031 -7.507812 27.5 -9.28125 L 32.53125 -7.875 C 31.738281 -5.300781 30.144531 -3.226562 27.75 -1.65625 C 25.363281 -0.0820312 22.445312 0.703125 19 0.703125 Z M 8.421875 -19.71875 L 27.765625 -19.71875 C 27.765625 -22.582031 26.921875 -24.960938 25.234375 -26.859375 C 23.554688 -28.753906 21.300781 -29.703125 18.46875 -29.703125 C 16.488281 -29.703125 14.765625 -29.238281 13.296875 -28.3125 C 11.835938 -27.382812 10.6875 -26.15625 9.84375 -24.625 C 9.007812 -23.101562 8.535156 -21.46875 8.421875 -19.71875 Z M 8.421875 -19.71875 "/></g></g></g><g fill="#000000" fill-opacity="1"><g transform="translate(83.452008, 61.294091)"><g><path d="M 32.53125 -33.953125 L 19.984375 0 L 14.671875 0 L 2.125 -33.953125 L 7.78125 -33.953125 L 17.15625 -6.890625 L 17.5 -6.890625 L 26.875 -33.953125 Z M 32.53125 -33.953125 "/></g></g></g><g fill="#000000" fill-opacity="1"><g transform="translate(112.363832, 61.294091)"><g/></g></g><g fill="#000000" fill-opacity="1"><g transform="translate(124.1392, 61.294091)"><g/></g></g><g fill="#000000" fill-opacity="1"><g transform="translate(135.914441, 61.294091)"><g><path d="M 19.53125 -33.953125 L 19.53125 -29.53125 L 12.28125 -29.53125 L 12.28125 -9.71875 C 12.28125 -8.25 12.5 -7.148438 12.9375 -6.421875 C 13.375 -5.691406 13.929688 -5.203125 14.609375 -4.953125 C 15.296875 -4.710938 16.023438 -4.59375 16.796875 -4.59375 C 17.367188 -4.59375 17.835938 -4.625 18.203125 -4.6875 C 18.578125 -4.757812 18.875 -4.816406 19.09375 -4.859375 L 20.15625 -0.171875 C 19.800781 -0.046875 19.304688 0.0820312 18.671875 0.21875 C 18.035156 0.363281 17.234375 0.4375 16.265625 0.4375 C 14.796875 0.4375 13.351562 0.125 11.9375 -0.5 C 10.53125 -1.132812 9.367188 -2.097656 8.453125 -3.390625 C 7.535156 -4.691406 7.078125 -6.332031 7.078125 -8.3125 L 7.078125 -29.53125 L 1.9375 -29.53125 L 1.9375 -33.953125 L 7.078125 -33.953125 L 7.078125 -42.078125 L 12.28125 -42.078125 L 12.28125 -33.953125 Z M 19.53125 -33.953125 "/></g></g></g><g clip-path="url(#b8a7ca0664)"><g fill="#000000" fill-opacity="1"><g transform="translate(152.816443, 61.294091)"><g><path d="M 7.953125 13.171875 C 7.066406 13.171875 6.273438 13.097656 5.578125 12.953125 C 4.890625 12.816406 4.414062 12.679688 4.15625 12.546875 L 5.484375 7.953125 C 7.378906 8.441406 8.960938 8.429688 10.234375 7.921875 C 11.515625 7.410156 12.613281 5.890625 13.53125 3.359375 L 14.671875 0.171875 L 2.125 -33.953125 L 7.78125 -33.953125 L 17.15625 -6.890625 L 17.5 -6.890625 L 26.875 -33.953125 L 32.53125 -33.953125 L 17.953125 5.484375 C 16.035156 10.609375 12.703125 13.171875 7.953125 13.171875 Z M 7.953125 13.171875 "/></g></g></g></g><g clip-path="url(#aa51e96987)"><g clip-path="url(#0cc78d2bc1)"><g clip-path="url(#c291039551)"><g clip-path="url(#e2178c367c)"><path fill="#000000" d="M 125.859375 26.085938 L 125.382812 24.585938 L 118.742188 19.765625 C 118.847656 20.386719 118.972656 21.003906 119.074219 21.628906 L 124.144531 28.261719 L 118.722656 25.34375 L 118.925781 26.808594 C 119.324219 29.679688 119.238281 32.539062 118.671875 35.386719 L 123.1875 41.511719 L 117.765625 38.597656 L 123.589844 49.949219 L 121.53125 51.101562 L 125.066406 52.664062 C 125.40625 51.777344 125.71875 50.875 125.996094 49.96875 C 127.183594 46.074219 127.769531 42.089844 127.746094 38.019531 C 127.722656 33.945312 127.09375 29.96875 125.859375 26.085938 Z M 125.859375 26.085938 " fill-opacity="1" fill-rule="nonzero"/></g></g></g></g><g clip-path="url(#f9da17d0e9)"><g clip-path="url(#ecc0d7d60d)"><g clip-path="url(#06b14e9931)"><g clip-path="url(#dca8de43a6)"><path fill="#000000" d="M 115.0625 4.308594 C 116.398438 8.695312 117.5 13.144531 118.363281 17.648438 L 124.589844 22.164062 C 122.410156 15.683594 119.234375 9.730469 115.0625 4.308594 Z M 115.0625 4.308594 " fill-opacity="1" fill-rule="nonzero"/></g></g></g></g><g clip-path="url(#d3ddd4f6fc)"><g clip-path="url(#57dc9dd934)"><g clip-path="url(#28864d3409)"><g clip-path="url(#adee7fca11)"><path fill="#000000" d="M 127.285156 25.632812 C 128.5625 29.660156 129.21875 33.785156 129.242188 38.007812 C 129.265625 42.234375 128.660156 46.363281 127.421875 50.402344 C 127.195312 51.15625 126.9375 51.898438 126.664062 52.640625 L 131.019531 50.65625 L 129.914062 49.652344 C 131.863281 47.511719 133.386719 45.105469 134.488281 42.429688 C 135.589844 39.753906 136.203125 36.972656 136.328125 34.082031 L 136.445312 31.382812 L 132.375 34.742188 L 135.742188 27.714844 C 135.097656 24.882812 134.234375 22.117188 133.152344 19.421875 C 131.269531 21.34375 129.183594 23.011719 126.898438 24.425781 Z M 127.285156 25.632812 " fill-opacity="1" fill-rule="nonzero"/></g></g></g></g><g clip-path="url(#ade2c76061)"><g clip-path="url(#2d6cdb3bb6)"><g clip-path="url(#7d6dd906c0)"><g clip-path="url(#7561469d73)"><path fill="#000000" d="M 124.59375 6.476562 C 123.328125 5.328125 121.914062 4.402344 120.355469 3.703125 C 118.796875 3.007812 117.167969 2.566406 115.46875 2.386719 L 116.160156 3.28125 C 120.730469 9.1875 124.140625 15.699219 126.390625 22.816406 L 126.433594 22.957031 C 128.585938 21.59375 130.542969 19.996094 132.308594 18.160156 L 132.519531 17.929688 C 131.488281 15.5625 130.292969 13.277344 128.9375 11.082031 L 128.011719 9.585938 L 126.054688 12.847656 L 124.699219 6.570312 Z M 124.59375 6.476562 " fill-opacity="1" fill-rule="nonzero"/></g></g></g></g><g clip-path="url(#81dc5cb299)"><g clip-path="url(#105a141313)"><g clip-path="url(#c8d519e288)"><g clip-path="url(#4405f0e18e)"><path fill="#000000" d="M 125.066406 52.664062 C 124.714844 53.582031 124.332031 54.484375 123.917969 55.371094 L 120.851562 61.878906 L 122.203125 62.515625 L 125.265625 56.003906 C 125.78125 54.90625 126.242188 53.78125 126.667969 52.636719 L 125.847656 53.011719 Z M 125.066406 52.664062 " fill-opacity="1" fill-rule="nonzero"/></g></g></g></g></svg>